<svg width="174" height="66" viewBox="0 0 174 66" fill="none" xmlns="http://www.w3.org/2000/svg">
<g clip-path="url(#clip0)">
<path d="M20.35 38.05C20.35 37.0833 19.7333 36.3167 18.5 35.75C17.2667 35.15 15.5167 34.85 13.25 34.85C10.9167 34.85 8.96667 35.4167 7.4 36.55C5.8 37.65 5 38.9833 5 40.55C5 42.0833 5.43333 43.2833 6.3 44.15C7.1 44.95 8.13333 45.5333 9.4 45.9L11.25 46.35C12.65 46.65 13.75 46.95 14.55 47.25C15.3833 47.5167 16.0833 47.9167 16.65 48.45C17.2167 48.9833 17.5 49.7 17.5 50.6C17.5 51.7333 17.1 52.65 16.3 53.35C15.5333 54.05 14.45 54.4 13.05 54.4C12.2167 54.4 10.25 53.7833 7.15 52.55C6.95 52.4833 6.8 52.45 6.7 52.45C6.26667 52.45 5.88333 52.65 5.55 53.05C5.21667 53.4167 5.05 53.8333 5.05 54.3C5.05 55.3333 5.83333 56.2 7.4 56.9C8.96667 57.6 10.8333 57.95 13 57.95C15.2 57.95 17.0833 57.3667 18.65 56.2C20.25 55 21.05 53.1833 21.05 50.75C21.05 49.7167 20.9167 48.8333 20.65 48.1C20.4167 47.3333 20.15 46.8167 19.85 46.55C19.5167 46.2167 19.1 45.8833 18.6 45.55C18.1 45.15 16.95 44.7167 15.15 44.25C13.3167 43.7833 11.8167 43.2667 10.65 42.7C9.38333 42.1 8.75 41.4167 8.75 40.65C8.75 39.8833 9.26667 39.25 10.3 38.75C11.3333 38.2167 12.3333 37.95 13.3 37.95C14.3333 37.95 15.4 38.2167 16.5 38.75C17.6667 39.2833 18.5167 39.55 19.05 39.55C19.35 39.55 19.6333 39.4167 19.9 39.15C20.2 38.85 20.35 38.4833 20.35 38.05ZM46.9195 33.75C46.4529 33.75 46.0029 33.9 45.5695 34.2C45.1695 34.4667 44.9029 34.7667 44.7695 35.1C44.7029 35.2 44.5195 35.6833 44.2195 36.55L43.8195 37.85C42.5195 41.4833 40.1862 43.3 36.8195 43.3C35.6529 43.3 34.6029 42.6333 33.6695 41.3C32.7362 39.9333 32.2529 38.4167 32.2195 36.75C32.1862 36.35 31.9862 36.0333 31.6195 35.8C31.2529 35.5667 30.8029 35.45 30.2695 35.45C29.8029 35.45 29.3862 35.6667 29.0195 36.1C28.6529 36.5 28.4695 36.95 28.4695 37.45V47.3L28.3195 56.55C28.3195 57.5167 28.7695 58 29.6695 58C31.2029 58 31.9862 57.3 32.0195 55.9C32.0862 54.5 32.1195 51 32.1195 45.4C33.1529 46.4333 34.6362 46.95 36.5695 46.95C38.4695 46.95 39.9862 46.65 41.1195 46.05C42.2862 45.45 43.4862 44.4 44.7195 42.9C44.7195 45.4667 44.7362 47.3333 44.7695 48.5C44.8362 50.7667 44.8695 53.3833 44.8695 56.35C44.8695 57.45 45.2862 58 46.1195 58C46.9862 58 47.5862 57.7833 47.9195 57.35C48.3195 56.8833 48.5195 56.4 48.5195 55.9C48.5195 48 48.4695 41.0833 48.3695 35.15C48.3695 34.2167 47.8862 33.75 46.9195 33.75Z" fill="white"/>
<path d="M92.9 58.05C94.8333 58.05 96.5 57.9333 97.9 57.7C98.6 57.5333 98.95 57 98.95 56.1C98.95 54.9667 98.4 54.4 97.3 54.4L89.9 54.85C89.8 52.7833 89.75 51.0167 89.75 49.55C89.75 48.2167 89.9333 45.85 90.3 42.45C90.6333 39.8167 90.8167 37.8833 90.85 36.65C90.85 36.1167 90.65 35.7 90.25 35.4C89.85 35.1 89.3333 34.95 88.7 34.95C87.4333 34.95 86.8 35.3667 86.8 36.2L86.45 50.7C86.45 53.6667 86.55 55.85 86.75 57.25C86.85 57.75 87.3167 58 88.15 58L92.9 58.05ZM107.99 56.65C108.157 55.1167 108.724 52.5833 109.69 49.05C111.49 49.5167 113.84 49.75 116.74 49.75L118.49 56.6C118.724 57.5333 119.39 58 120.49 58C120.924 58 121.29 57.8667 121.59 57.6C121.89 57.3333 122.04 57 122.04 56.6C121.14 52.7 120.374 49.6333 119.74 47.4C119.074 45.0333 118.19 42.65 117.09 40.25C115.99 37.8833 115.274 36.4333 114.94 35.9C114.54 35.2667 114.074 34.95 113.54 34.95C112.507 34.95 111.474 35.8667 110.44 37.7C109.307 39.6667 108.34 41.9667 107.54 44.6C105.607 50.6 104.64 54.6 104.64 56.6C104.64 57.4667 105.157 57.9 106.19 57.9C107.257 57.9 107.857 57.4833 107.99 56.65ZM113.39 39.55C114.357 41.5833 115.19 43.8667 115.89 46.4C113.89 46.4 112.157 46.2 110.69 45.8C111.39 43.4667 112.29 41.3833 113.39 39.55ZM132.762 42.4C135.528 45.5333 138.178 49.5 140.712 54.3C140.812 54.4667 141.012 54.8333 141.312 55.4C141.612 55.9667 142.045 56.6 142.612 57.3C143.078 57.8667 143.728 58.15 144.562 58.15C145.962 58.15 146.662 57.2833 146.662 55.55L146.412 36.95C146.412 36.3833 146.228 35.9167 145.862 35.55C145.495 35.15 145.095 34.95 144.662 34.95C143.562 34.95 142.878 35.5833 142.612 36.85V37.25L142.862 41.35C143.062 44.45 143.178 48.05 143.212 52.15C141.545 48.65 139.145 44.9667 136.012 41.1C134.712 39.4333 133.712 38.2833 133.012 37.65C132.312 36.9833 131.712 36.65 131.212 36.65C130.278 36.65 129.678 37.1 129.412 38C129.245 38.7 129.162 39.6667 129.162 40.9V42.55L128.762 56.55C128.795 56.9833 128.962 57.35 129.262 57.65C129.595 57.9167 129.962 58.05 130.362 58.05C131.395 58.05 131.978 57.6 132.112 56.7C132.145 56.5667 132.162 56.2167 132.162 55.65L132.212 54.55L132.762 42.4ZM155.233 58.5C155.4 59.3667 155.917 59.8 156.783 59.8C157.35 59.8 157.85 59.6 158.283 59.2C158.717 58.8 158.933 58.3333 158.933 57.8C159.867 57.9333 160.667 58 161.333 58C164.3 58 166.617 57.3 168.283 55.9C169.983 54.4667 170.833 52.4167 170.833 49.75C170.833 46.1167 169.233 42.75 166.033 39.65C162.9 36.55 159.6 35 156.133 35C154.867 35 154.1 35.6333 153.833 36.9C153.667 37.7333 153.583 38.8 153.583 40.1C153.583 40.9333 153.65 42.8333 153.783 45.8C153.95 49.5667 154.183 52.5333 154.483 54.7C154.25 55.0333 154.133 55.3333 154.133 55.6C154.133 56 154.35 56.3667 154.783 56.7L155.233 58.5ZM157.333 38.7C160.4 39.9 162.817 41.6 164.583 43.8C166.35 46 167.233 48.4833 167.233 51.25C167.233 53.45 165.283 54.55 161.383 54.55C159.65 54.55 158.617 54.5167 158.283 54.45C157.983 52.3167 157.733 49.7 157.533 46.6C157.367 43.1667 157.283 41.1667 157.283 40.6C157.283 39.5667 157.3 38.9333 157.333 38.7Z" fill="white"/>
<path fill-rule="evenodd" clip-rule="evenodd" d="M66.586 31C66.961 30.6251 67.4697 30.4144 68 30.4144C68.5303 30.4144 69.0389 30.6251 69.414 31L82.708 44.292C82.8958 44.4798 83.0012 44.7344 83.0012 45C83.0012 45.2656 82.8958 45.5202 82.708 45.708C82.5202 45.8958 82.2655 46.0013 82 46.0013C81.7344 46.0013 81.4798 45.8958 81.292 45.708L68 32.414L54.708 45.708C54.5202 45.8958 54.2655 46.0013 54 46.0013C53.7344 46.0013 53.4798 45.8958 53.292 45.708C53.1042 45.5202 52.9987 45.2656 52.9987 45C52.9987 44.7344 53.1042 44.4798 53.292 44.292L66.586 31Z" fill="white"/>
<path fill-rule="evenodd" clip-rule="evenodd" d="M80 46.586L68 34.586L56 46.586V55C56 55.7956 56.3161 56.5587 56.8787 57.1213C57.4413 57.6839 58.2044 58 59 58H63V48C63 46.8954 63.8954 46 65 46H71C72.1046 46 73 46.8954 73 48V58H77C77.7956 58 78.5587 57.6839 79.1213 57.1213C79.6839 56.5587 80 55.7956 80 55V46.586ZM78 40V33C78 32.7348 77.8946 32.4804 77.7071 32.2929C77.5196 32.1054 77.2652 32 77 32H75C74.7348 32 74.4804 32.1054 74.2929 32.2929C74.1054 32.4804 74 32.7348 74 33V36L78 40Z" fill="white"/>
<path d="M68 7.5C68.3315 7.5 68.6495 7.3683 68.8839 7.13388C69.1183 6.89946 69.25 6.58152 69.25 6.25V3.75C69.25 3.41848 69.1183 3.10054 68.8839 2.86612C68.6495 2.6317 68.3315 2.5 68 2.5C67.6685 2.5 67.3505 2.6317 67.1161 2.86612C66.8817 3.10054 66.75 3.41848 66.75 3.75V6.25C66.75 6.58152 66.8817 6.89946 67.1161 7.13388C67.3505 7.3683 67.6685 7.5 68 7.5ZM79.25 13.75H76.75C76.4185 13.75 76.1005 13.8817 75.8661 14.1161C75.6317 14.3505 75.5 14.6685 75.5 15C75.5 15.3315 75.6317 15.6495 75.8661 15.8839C76.1005 16.1183 76.4185 16.25 76.75 16.25H79.25C79.5815 16.25 79.8995 16.1183 80.1339 15.8839C80.3683 15.6495 80.5 15.3315 80.5 15C80.5 14.6685 80.3683 14.3505 80.1339 14.1161C79.8995 13.8817 79.5815 13.75 79.25 13.75ZM60.5 15C60.5 14.6685 60.3683 14.3505 60.1339 14.1161C59.8995 13.8817 59.5815 13.75 59.25 13.75H56.75C56.4185 13.75 56.1005 13.8817 55.8661 14.1161C55.6317 14.3505 55.5 14.6685 55.5 15C55.5 15.3315 55.6317 15.6495 55.8661 15.8839C56.1005 16.1183 56.4185 16.25 56.75 16.25H59.25C59.5815 16.25 59.8995 16.1183 60.1339 15.8839C60.3683 15.6495 60.5 15.3315 60.5 15ZM60.775 6.25C60.5313 6.01959 60.2061 5.89542 59.8709 5.9048C59.5357 5.91417 59.2179 6.05633 58.9875 6.3C58.7571 6.54367 58.6329 6.86888 58.6423 7.20411C58.6517 7.53933 58.7938 7.85709 59.0375 8.0875L60.8375 9.825C60.9583 9.94164 61.1013 10.0327 61.2581 10.0929C61.4149 10.153 61.5822 10.1809 61.75 10.175C61.9184 10.1744 62.0849 10.1397 62.2396 10.0731C62.3942 10.0065 62.5338 9.90938 62.65 9.7875C62.8828 9.5533 63.0135 9.23648 63.0135 8.90625C63.0135 8.57602 62.8828 8.2592 62.65 8.025L60.775 6.25ZM74.25 10.175C74.5718 10.1737 74.8808 10.0484 75.1125 9.825L76.9125 8.0875C77.1321 7.85806 77.2561 7.55365 77.2594 7.23609C77.2626 6.91852 77.1449 6.61162 76.9301 6.37771C76.7153 6.1438 76.4195 6.00043 76.1028 5.97671C75.7861 5.95299 75.4723 6.0507 75.225 6.25L73.425 8.025C73.1922 8.2592 73.0615 8.57602 73.0615 8.90625C73.0615 9.23648 73.1922 9.5533 73.425 9.7875C73.6414 10.0159 73.936 10.1543 74.25 10.175ZM68 22.5C67.6685 22.5 67.3505 22.6317 67.1161 22.8661C66.8817 23.1005 66.75 23.4185 66.75 23.75V26.25C66.75 26.5815 66.8817 26.8995 67.1161 27.1339C67.3505 27.3683 67.6685 27.5 68 27.5C68.3315 27.5 68.6495 27.3683 68.8839 27.1339C69.1183 26.8995 69.25 26.5815 69.25 26.25V23.75C69.25 23.4185 69.1183 23.1005 68.8839 22.8661C68.6495 22.6317 68.3315 22.5 68 22.5ZM75.1625 20.175C74.9238 19.9446 74.6034 19.8184 74.2717 19.8243C73.9399 19.8302 73.6242 19.9676 73.3938 20.2063C73.1633 20.4449 73.0372 20.7654 73.0431 21.0971C73.0489 21.4288 73.1863 21.7446 73.425 21.975L75.225 23.75C75.4567 23.9734 75.7657 24.0987 76.0875 24.1C76.255 24.101 76.421 24.0683 76.5756 24.0039C76.7302 23.9394 76.8703 23.8446 76.9875 23.725C77.1047 23.6088 77.1977 23.4705 77.2611 23.3182C77.3246 23.1659 77.3572 23.0025 77.3572 22.8375C77.3572 22.6725 77.3246 22.5091 77.2611 22.3568C77.1977 22.2045 77.1047 22.0662 76.9875 21.95L75.1625 20.175ZM60.8375 20.175L59.0375 21.9125C58.9203 22.0287 58.8273 22.167 58.7639 22.3193C58.7004 22.4716 58.6678 22.635 58.6678 22.8C58.6678 22.965 58.7004 23.1284 58.7639 23.2807C58.8273 23.433 58.9203 23.5713 59.0375 23.6875C59.1547 23.8071 59.2948 23.9019 59.4494 23.9664C59.604 24.0308 59.77 24.0635 59.9375 24.0625C60.2456 24.0651 60.5439 23.9538 60.775 23.75L62.575 22.0125C62.8137 21.7821 62.9511 21.4663 62.9569 21.1346C62.9628 20.8029 62.8367 20.4824 62.6062 20.2437C62.3758 20.0051 62.0601 19.8677 61.7283 19.8618C61.3966 19.8559 61.0762 19.9821 60.8375 20.2125V20.175ZM68 10C67.0111 10 66.0444 10.2932 65.2221 10.8427C64.3999 11.3921 63.759 12.173 63.3806 13.0866C63.0022 14.0002 62.9031 15.0055 63.0961 15.9755C63.289 16.9454 63.7652 17.8363 64.4645 18.5355C65.1637 19.2348 66.0546 19.711 67.0245 19.9039C67.9945 20.0969 68.9998 19.9978 69.9134 19.6194C70.827 19.241 71.6079 18.6001 72.1573 17.7779C72.7068 16.9556 73 15.9889 73 15C73 13.6739 72.4732 12.4021 71.5355 11.4645C70.5979 10.5268 69.3261 10 68 10V10ZM68 17.5C67.5055 17.5 67.0222 17.3534 66.6111 17.0787C66.2 16.804 65.8795 16.4135 65.6903 15.9567C65.5011 15.4999 65.4516 14.9972 65.548 14.5123C65.6445 14.0273 65.8826 13.5819 66.2322 13.2322C66.5819 12.8826 67.0273 12.6445 67.5123 12.548C67.9972 12.4516 68.4999 12.5011 68.9567 12.6903C69.4135 12.8795 69.804 13.2 70.0787 13.6111C70.3534 14.0222 70.5 14.5055 70.5 15C70.5 15.663 70.2366 16.2989 69.7678 16.7678C69.2989 17.2366 68.663 17.5 68 17.5Z" fill="white"/>
</g>
<defs>
<clipPath id="clip0">
<rect width="174" height="66" fill="white"/>
</clipPath>
</defs>
</svg>
